<svg width="800" height="800" viewBox="0 0 800 800" fill="none" xmlns="http://www.w3.org/2000/svg">
<path d="M624 480V192C624 165.49 602.5 144 576 144H528V335.1C528 348.51 512.48 355.98 502.9 347.59L448 304L393.1 348.5C383.5 356.8 368 349.4 368 335.1V144H272C218.98 144 176 186.98 176 240V560C176 613.02 218.98 656 272 656H592C609.67 656 624 641.67 624 624C624 612.28 617.393 602.48 608 596.9V515.54C617.8 506.8 624 494.2 624 480ZM560 592H272C254.33 592 240 577.67 240 560C240 542.33 254.33 528 272 528H560V592Z" fill="black"/>
</svg>
