<svg width="800" height="800" viewBox="0 0 800 800" fill="none" xmlns="http://www.w3.org/2000/svg">
<path d="M624 480V192C624 165.49 602.5 144 576 144H272C218.98 144 176 186.98 176 240V560C176 613.02 218.98 656 272 656H592C609.67 656 624 641.67 624 624.9C624 613.18 617.393 603.38 608 597.8V516.44C617.8 506.8 624 494.2 624 480ZM319.1 272H511.1C520.8 272 528 279.2 528 288C528 296.8 520.8 304 512 304H319.1C311.2 304 304 296.8 304 288C304 279.2 311.2 272 319.1 272ZM319.1 336H511.1C520.8 336 528 343.2 528 352C528 360.8 520.8 368 512 368H319.1C311.2 368 304 360.8 304 352C304 343.2 311.2 336 319.1 336ZM560 592H272C254.33 592 240 577.67 240 560C240 542.33 254.33 528 272 528H560V592Z" fill="black"/>
</svg>
