<svg width="800" height="800" viewBox="0 0 800 800" fill="none" xmlns="http://www.w3.org/2000/svg">
<path d="M144 363.2V575.7C144 589.95 155.62 601.95 170.5 602.7C219.32 605.2 324.2 615.3 384 655.9V389.2C325.4 349.5 223.99 338.8 173.84 336C157.59 335.1 144 347.6 144 363.2ZM626.2 336C576.11 338.848 474.9 349.47 417.1 389.09C416.1 389.2 416 389.3 416 389.5V656C476.04 615.61 580.7 605.24 629.5 602.72C644.4 601.9 656 589.9 656 575.7V363.2C656 347.6 642.4 335.1 626.2 336ZM496 240C496 187 453 144 400 144C347 144 304 187 304 240C304 293 347 336 400 336C453 336 496 293 496 240Z" fill="black"/>
</svg>
