<svg width="800" height="800" viewBox="0 0 800 800" fill="none" xmlns="http://www.w3.org/2000/svg">
<path d="M623.8 431.6L624.5 591.7C624.5 594.5 624.3 597.1 624 599.8V616C624 638.1 606.1 656 584 656H568C566.9 656 565.8 655.1 564.7 655.9C563.3 655.1 561.9 656 560.5 656H504C481.9 656 464 638.1 464 616V528C464 510.3 449.7 496 432 496H368C350.3 496 336 510.3 336 528V616C336 638.1 318.1 656 296 656H240.1C238.6 656 237.1 655.9 235.6 655.8C234.4 655.9 233.2 656 232 656H216C193.91 656 176 638.1 176 616V504C176 503.1 176.03 502.1 176.09 501.2V431.6H144.05C126.02 431.6 112 417.5 112 399.5C112 390.5 115.004 382.5 122.01 375.5L378.4 152.016C385.4 145.002 393.4 144 400.4 144C407.4 144 415.4 146.004 421.5 151.014L528 244.7V208C528 190.33 542.3 176 560 176H592C609.7 176 624 190.33 624 208V329L676.8 375.5C684.8 382.5 688.9 390.5 687.8 399.5C687.8 417.5 672.8 431.6 655.8 431.6H623.8Z" fill="black"/>
</svg>
