<svg width="800" height="800" viewBox="0 0 800 800" fill="none" xmlns="http://www.w3.org/2000/svg">
<path d="M498.609 255.485L513.705 504.44L502.726 504.165C466.494 503.341 431.086 512.948 400.069 532.162C369.053 512.948 333.645 504.165 297.412 504.165C251.848 504.165 215.342 514.87 173.896 531.888L205.187 273.6C233.733 261.797 266.671 255.485 297.413 255.485C338.586 255.485 371.249 268.66 400.07 298.029C427.793 269.758 459.083 256.308 498.609 255.485ZM681.14 592C655.614 592 633.655 586.785 610.598 576.355C576.288 560.71 540.605 551.377 502.727 551.377C463.75 551.377 427.793 564.278 400.07 592C372.347 564.277 336.39 551.377 297.413 551.377C259.535 551.377 223.852 560.71 189.542 576.355C167.309 586.236 144.801 592 120.373 592H119L161.545 242.859C200.796 220.626 248.556 208 293.845 208C330.9 208 369.054 215.685 400.07 237.095C431.086 215.685 469.24 208 506.295 208C551.584 208 599.344 220.626 638.595 242.859L681.14 592ZM637.772 547.259L603.736 267.013C572.994 253.014 536.488 245.603 502.727 245.603C464.299 245.603 428.342 257.68 400.07 284.305C371.798 257.68 335.842 245.603 297.413 245.603C263.652 245.603 227.146 253.014 196.404 267.013L162.368 547.259C209.579 527.772 245.262 513.773 297.413 513.773C335.017 513.773 368.23 523.379 400.07 543.417C431.91 523.379 465.122 513.773 502.727 513.773C554.878 513.773 590.561 527.772 637.772 547.259Z" fill="black"/>
</svg>
