<svg width="800" height="800" viewBox="0 0 800 800" fill="none" xmlns="http://www.w3.org/2000/svg">
<path d="M488.7 382.5L344.6 246.5C337.7 239.97 327.4 238.17 318.6 241.95C309.8 245.8 304.1 254.4 304.1 264V336H176.02C158.33 336 144 350.3 144 368V432C144 449.68 158.33 464 176.02 464H304.12V536C304.12 545.578 309.827 554.25 318.63 558.05C327.433 561.831 337.66 560.034 344.63 553.456L488.73 417.456C498.3 408.4 498.3 391.6 488.7 382.5ZM560 176H496C478.33 176 464 190.33 464 208C464 225.67 478.33 240 496 240H560C577.67 240 592 254.33 592 272V528C592 545.67 577.67 560 560 560H496C478.33 560 464 574.33 464 592C464 609.67 478.33 624 496 624H560C613.02 624 656 581.02 656 528V272C656 218.98 613 176 560 176Z" fill="black"/>
</svg>
