<svg width="800" height="800" viewBox="0 0 800 800" fill="none" xmlns="http://www.w3.org/2000/svg">
<path d="M240 624H304C321.7 624 336 609.7 336 592C336 574.3 321.7 560 304 560H240C222.33 560 208 545.67 208 528V272C208 254.33 222.33 240 240 240H304C321.7 240 336 225.67 336 208C336 190.33 321.7 176 304 176H240C186.98 176 144 218.98 144 272V528C144 581 186.98 624 240 624ZM648.8 382.5L504.7 246.5C497.725 239.922 487.5 238.125 478.7 241.906C469.897 245.703 464.19 254.376 464.19 263.956L464.098 335.956L336.098 335.955C318.408 335.955 304.078 350.285 304.078 367.955V431.955C304.078 449.625 318.418 463.955 336.098 463.955L464.098 463.956L464.19 535.056C464.19 544.634 469.897 553.306 478.7 557.106C487.503 560.887 497.73 559.09 504.7 552.512L648.8 416.512C658.4 408.4 658.4 391.6 648.8 382.5Z" fill="black"/>
</svg>
