<svg width="800" height="800" viewBox="0 0 800 800" fill="none" xmlns="http://www.w3.org/2000/svg">
<path d="M400.281 144.001C405.881 143.957 411.281 145.394 416.081 148.074L620.481 234.538C631.681 239.278 639.181 249.108 639.881 262.108C645.581 357.608 610.681 565.908 416.481 651.708C411.581 654.508 405.081 656.108 400.281 656.008C394.481 656.108 388.881 654.508 383.081 651.708C189.781 565.908 154.931 357.608 160.551 262.108C161.261 249.108 168.811 239.278 180.021 234.538L384.381 148.074C389.181 145.394 394.681 143.957 400.281 144.001ZM410.081 507.408L508.181 407.608C536.181 378.708 534.481 330.608 502.081 303.508C475.781 279.808 435.481 284.208 410.081 310.508L400.381 320.108L389.881 310.508C365.381 284.208 324.181 279.808 296.981 303.508C265.481 330.608 263.781 378.708 291.781 407.608L388.181 507.408C395.181 513.508 404.781 513.508 410.081 507.408Z" fill="black"/>
</svg>
