<svg width="800" height="800" viewBox="0 0 800 800" fill="none" xmlns="http://www.w3.org/2000/svg">
<path d="M189.63 223.75L196 225.25V283.75C189 287.9 184 295.3 184 304C184 312.375 188.625 319.38 195.12 323.75L179.5 386C177.75 392.9 181.63 400 187.13 400H228.88C234.38 400 238.255 392.875 236.505 386.9L220.88 323.8C227.38 319.4 232 312.4 232 304C232 295.25 227 287.88 220 283.75V231.13L272 243.63L272.001 304C272.001 374.75 329.251 432 400.001 432C470.751 432 527.101 374.75 527.101 304L528 243.62L610.25 223.75C628.5 219.375 628.5 196.75 610.25 192.25L419.85 146.25C406.85 143.25 393.23 143.25 380.22 146.25L189.62 192.25C171.5 196.63 171.5 219.38 189.63 223.75ZM503.2 456.8L400 560L296.8 456.8C226.87 479.1 176 544 176 621.3C176 640.5 191.53 656 210.67 656H589.37C608.5 656 624 640.5 624 621.3C624 544 573.1 479.1 503.2 456.8Z" fill="black"/>
</svg>
