<svg width="800" height="800" viewBox="0 0 800 800" fill="none" xmlns="http://www.w3.org/2000/svg">
<path d="M304 400C374.7 400 432 342.69 432 272C432 201.31 374.7 144 304 144C233.3 144 176 201.31 176 272C176 342.69 233.3 400 304 400ZM354.7 448H253.3C157.61 448 80 525.6 80 621.3C80 640.5 95.52 656 114.66 656H493.36C512.5 656 528 640.5 528 621.3C528 525.6 450.4 448 354.7 448ZM696 344H648V296C648 282.8 637.3 272 624 272C610.7 272 600 282.75 600 296V344H552C538.8 344 528 354.8 528 368C528 381.2 538.75 392 552 392H600V440C600 453.3 610.8 464 624 464C637.2 464 648 453.25 648 440V392H696C709.3 392 720 381.3 720 368C720 354.7 709.3 344 696 344Z" fill="black"/>
</svg>
