<svg width="800" height="800" viewBox="0 0 800 800" fill="none" xmlns="http://www.w3.org/2000/svg">
<path d="M144 400C144 258.6 258.6 144 400 144C541.4 144 656 258.6 656 400C656 541.4 541.4 656 400 656C258.6 656 144 541.4 144 400ZM319 352.1L366.1 399.1L319 447C309.7 456.4 309.7 471.6 319 480.1C328.4 490.3 343.6 490.3 352.1 480.1L399.1 433.9L447 480.1C456.4 490.3 471.6 490.3 480.1 480.1C490.3 471.6 490.3 456.4 480.1 447L433.9 399.1L480.1 352.1C490.3 343.6 490.3 328.4 480.1 319C471.6 309.7 456.4 309.7 447 319L399.1 366.1L352.1 319C343.6 309.7 328.4 309.7 319 319C309.7 328.4 309.7 343.6 319 352.1Z" fill="black"/>
</svg>
